<svg width="137" height="414" viewBox="0 0 137 414" fill="none" xmlns="http://www.w3.org/2000/svg">
<path d="M-229.666 75.3568C-199.282 38.4888 -157.054 13.2969 -110.177 4.07338C-63.3006 -5.15012 -14.6762 2.16552 27.4112 24.7738C69.4985 47.3821 102.445 83.8842 120.636 128.061C138.828 172.237 141.139 221.354 127.176 267.044C113.212 312.733 83.8393 352.167 44.0607 378.627C4.28217 405.088 -43.4405 416.937 -90.976 412.155C-138.511 407.374 -182.918 386.259 -216.631 352.407C-250.343 318.555 -271.274 274.06 -275.859 226.506L-209.561 220.114C-206.455 252.331 -192.275 282.474 -169.436 305.407C-146.598 328.341 -116.514 342.645 -84.3103 345.885C-52.107 349.124 -19.7768 341.096 7.17152 323.171C34.1199 305.245 54.019 278.53 63.4784 247.577C72.9378 216.625 71.3721 183.35 59.0482 153.422C46.7243 123.494 24.4046 98.7655 -4.10788 83.4493C-32.6203 68.1331 -65.5614 63.1771 -97.3183 69.4256C-129.075 75.6742 -157.683 92.7407 -178.267 117.717L-229.666 75.3568Z" fill="#6E9FB8"/>
</svg>
