<svg width="44" height="44" viewBox="0 0 44 44" fill="none" xmlns="http://www.w3.org/2000/svg">
<rect y="0.274902" width="43.45" height="43.45" rx="21.725" fill="#F1936B"/>
<g clip-path="url(#clip0_59_206)">
<path d="M16.389 22.1533L14.5757 16.7628C14.5235 16.6065 14.5159 16.4388 14.5537 16.2784C14.5915 16.118 14.6733 15.9713 14.7898 15.8548C14.9063 15.7383 15.053 15.6565 15.2134 15.6187C15.3738 15.5809 15.5415 15.5885 15.6978 15.6407L21.0883 17.454L25.6677 14.0366C25.7991 13.9373 25.9557 13.8768 26.1197 13.8623C26.2837 13.8477 26.4485 13.8795 26.5953 13.954C26.7421 14.0286 26.865 14.143 26.9499 14.2841C27.0348 14.4251 27.0784 14.5872 27.0756 14.7519L26.9847 20.4466L31.6262 23.7222C32.2217 24.1429 32.0716 25.0667 31.3728 25.2863L25.9273 26.9923L24.2207 32.4385C24.0024 33.1373 23.0778 33.2867 22.6565 32.6905L19.3809 28.049L13.6862 28.1399C13.5219 28.1422 13.3603 28.0984 13.2196 28.0135C13.079 27.9285 12.965 27.8058 12.8907 27.6593C12.8163 27.5128 12.7845 27.3483 12.7989 27.1847C12.8134 27.021 12.8734 26.8647 12.9723 26.7334L16.389 22.1533Z" fill="white" stroke="white" stroke-width="1.46039" stroke-linecap="round" stroke-linejoin="round"/>
</g>
<defs>
<clipPath id="clip0_59_206">
<rect width="23.3663" height="23.3663" fill="white" transform="translate(4.8075 22.395) rotate(-45)"/>
</clipPath>
</defs>
</svg>
