<svg width="130" height="131" viewBox="0 0 130 131" fill="none" xmlns="http://www.w3.org/2000/svg">
<g clip-path="url(#clip0_194_3)">
<rect y="56.8916" width="85" height="99" rx="30" transform="rotate(-42.0141 0 56.8916)" fill="#ADC482"/>
<path d="M61.7263 77.3027L64.936 74.4113C66.4974 76.1445 70.0261 75.6403 72.642 73.2838C75.2578 70.9273 76.1264 67.4702 74.565 65.737C72.9747 63.9717 70.7274 64.8333 66.4306 67.1633C62.2621 69.3776 57.0711 72.1351 53.052 67.6737C50.4642 64.801 50.6258 60.2365 53.1463 56.4832L49.9947 52.9847L54.8092 48.6475L57.9608 52.1461C61.956 50.0297 66.5126 50.3439 69.1004 53.2165L65.8907 56.108C64.3294 54.3747 60.8007 54.8789 58.1848 57.2354C55.5689 59.592 54.7003 63.049 56.2617 64.7823C57.852 66.5476 60.0993 65.686 64.3962 63.356C68.5647 61.1416 73.7556 58.3841 77.7747 62.8456C80.3625 65.7182 80.2009 70.2828 77.6804 74.036L80.8321 77.5346L76.0176 81.8717L72.8659 78.3732C68.8708 80.4895 64.3142 80.1754 61.7263 77.3027Z" fill="white"/>
</g>
<defs>
<clipPath id="clip0_194_3">
<rect y="56.8916" width="85" height="99" rx="30" transform="rotate(-42.0141 0 56.8916)" fill="white"/>
</clipPath>
</defs>
</svg>
