<svg width="311" height="349" viewBox="0 0 311 349" fill="none" xmlns="http://www.w3.org/2000/svg">
<path d="M486.892 164.423C507.031 218.889 507.661 278.653 488.676 333.532C469.69 388.411 432.264 435.009 382.773 465.387C333.282 495.764 274.789 508.042 217.261 500.128C159.732 492.213 106.728 464.596 67.2789 421.983C27.8298 379.369 4.37671 324.396 0.915811 266.429C-2.54508 208.462 14.2003 151.088 48.2989 104.084C82.3974 57.079 131.739 23.3517 187.917 8.64853C244.095 -6.05466 303.633 -0.824047 356.387 23.4492L322.547 96.9951C286.808 80.551 246.474 77.0075 208.415 86.9683C170.357 96.9291 136.93 119.778 113.83 151.622C90.7294 183.465 79.385 222.334 81.7297 261.604C84.0743 300.874 99.9628 338.117 126.688 366.985C153.413 395.854 189.321 414.564 228.295 419.925C267.268 425.287 306.894 416.969 340.422 396.39C373.95 375.81 399.305 344.242 412.167 307.063C425.029 269.885 424.602 229.398 410.959 192.499L486.892 164.423Z" fill="#ADC482"/>
</svg>
