<svg width="104" height="104" viewBox="0 0 104 104" fill="none" xmlns="http://www.w3.org/2000/svg">
<rect y="13.7111" width="90.4707" height="90.4731" rx="30" transform="rotate(-8.71692 0 13.7111)" fill="#6E9FB8"/>
<path d="M64.3401 27.3249L66.6163 26.9759C67.5143 26.8382 68.4302 27.0628 69.1627 27.6002C69.8952 28.1376 70.3843 28.9439 70.5225 29.8418L70.8718 32.1199C71.6867 37.425 70.4443 42.8409 67.3987 47.2604L65.4089 50.1488C64.5855 51.3415 63.7074 52.4954 62.7774 53.607L64.2725 63.3581C64.455 64.5484 63.9986 65.7456 63.0724 66.5136L55.1394 73.0965C54.9593 73.246 54.7461 73.3504 54.5175 73.4008C54.289 73.4512 54.0516 73.4463 53.8254 73.3864C53.5991 73.3265 53.3904 73.2134 53.2167 73.0565C53.043 72.8995 52.9093 72.7034 52.8268 72.4843L49.6061 63.9209C49.4981 63.8592 49.3947 63.7896 49.2969 63.7128L45.0819 60.4089L40.6666 57.3754C40.564 57.3051 40.4666 57.2273 40.3754 57.1427L31.2424 56.6353C31.0084 56.6228 30.7808 56.5545 30.5786 56.436C30.3765 56.3176 30.2056 56.1525 30.0802 55.9546C29.9549 55.7566 29.8787 55.5316 29.858 55.2982C29.8374 55.0648 29.8729 54.8298 29.9616 54.613L33.8673 45.0718C34.3225 43.958 35.3279 43.164 36.5183 42.9815L46.2675 41.4867C47.0496 40.2677 47.8877 39.0855 48.779 37.9439L50.9379 35.1763C54.2407 30.9469 59.034 28.1385 64.3382 27.3252L64.3401 27.3249ZM53.2536 36.9845L51.0944 39.7502C49.0625 42.3527 47.3324 45.1773 45.9371 48.1698L42.6689 55.1885L46.7846 58.0123L46.8605 58.068L50.7854 61.147L56.4989 55.9286C58.938 53.6997 61.1163 51.2011 62.9918 48.4809L64.982 45.5945C67.6031 41.7912 68.6721 37.1302 67.9704 32.5648L67.6214 30.2886C67.6018 30.1603 67.5319 30.045 67.4272 29.9682C67.3226 29.8913 67.1917 29.8592 67.0634 29.8789L64.7853 30.2282C60.2207 30.9279 56.0957 33.3447 53.2536 36.9845ZM43.5968 70.6209C41.6156 73.3197 36.4752 74.5754 34.8589 74.9124C34.7955 74.9257 34.7301 74.9258 34.6668 74.9127C34.6034 74.8996 34.5434 74.8735 34.4906 74.8361C34.4391 74.7969 34.3963 74.7475 34.3647 74.691C34.3332 74.6344 34.3137 74.572 34.3075 74.5076C34.1447 72.8645 33.8026 67.5841 35.7839 64.8853C37.2588 62.8762 40.5491 62.3717 42.5582 63.8466C44.5672 65.3215 45.0717 68.6119 43.5968 70.6209ZM39.9024 54.1744L43.2731 46.9321C43.6168 46.1939 43.9788 45.4669 44.359 44.7509L36.9634 45.8848C36.8801 45.8976 36.8014 45.9318 36.7352 45.9839C36.6689 46.0361 36.6172 46.1045 36.5851 46.1825L33.4628 53.8166L39.9024 54.1744ZM60.2369 56.4054C59.6653 56.9843 59.0796 57.5483 58.4796 58.0972L52.5837 63.4822L54.8524 69.5192L61.2004 64.253C61.2652 64.1991 61.315 64.1293 61.3449 64.0504C61.3748 63.9716 61.3839 63.8863 61.3711 63.8029L60.2369 56.4054ZM61.0296 42.1949C61.088 42.5763 61.0706 42.9654 60.9786 43.3401C60.8865 43.7149 60.7216 44.0678 60.4931 44.3787C60.2647 44.6897 59.9772 44.9526 59.6472 45.1525C59.3171 45.3523 58.951 45.4852 58.5695 45.5436C58.1881 45.6019 57.799 45.5846 57.4243 45.4925C57.0496 45.4005 56.6966 45.2355 56.3857 45.0071C56.0747 44.7786 55.8118 44.4912 55.612 44.1611C55.4121 43.8311 55.2792 43.4649 55.2208 43.0835C55.103 42.3132 55.296 41.5277 55.7573 40.8997C56.2187 40.2716 56.9106 39.8526 57.6809 39.7348C58.4512 39.617 59.2368 39.8099 59.8648 40.2713C60.4928 40.7326 60.9118 41.4246 61.0296 42.1949Z" fill="white"/>
</svg>
