<svg width="132" height="132" viewBox="0 0 132 132" fill="none" xmlns="http://www.w3.org/2000/svg">
<path d="M81.4066 3.93659C89.3283 -4.07649 102.944 2.08984 102.146 13.3294L99.7071 47.6945C99.4563 51.2281 100.762 54.695 103.281 57.1856L127.781 81.4066C135.794 89.3283 129.628 102.944 118.388 102.146L84.0232 99.7071C80.4896 99.4563 77.0227 100.762 74.5321 103.281L50.3111 127.781C42.3894 135.794 28.774 129.628 29.5717 118.388L32.0106 84.0232C32.2614 80.4896 30.9559 77.0227 28.4366 74.5321L3.93659 50.3111C-4.07649 42.3894 2.08984 28.774 13.3294 29.5717L47.6945 32.0106C51.2281 32.2614 54.695 30.9559 57.1856 28.4366L81.4066 3.93659Z" fill="#F07B48" fill-opacity="0.7"/>
</svg>
